<?xml version="1.0" standalone="no"?><!DOCTYPE svg PUBLIC "-//W3C//DTD SVG 1.1//EN" "http://www.w3.org/Graphics/SVG/1.1/DTD/svg11.dtd"><svg t="1572531592123" class="icon" viewBox="0 0 1024 1024" version="1.1" xmlns="http://www.w3.org/2000/svg" p-id="8144" xmlns:xlink="http://www.w3.org/1999/xlink" width="128" height="128"><defs><style type="text/css"></style></defs><path d="M625.394 937.881l52.214 21.775 36.2-57.885c16.286 2.541 32.481 2.541 48.404 0.22699999l36.428 57.83900002 52.396-21.50400001-15.378-66.322c13.065-9.481 24.678-20.959 34.659-34.25100001l66.32200001 15.06100001 21.86499999-52.259-57.431-35.838c2.586-16.37599999 2.632-32.753 0.317-48.721l57.522-35.566-21.367-52.39599999-66.141 14.38099999c-9.527-13.065-21.095-24.814-34.478-34.79399999l15.51499999-65.64200001-52.21399998-21.82-36.65400001 56.75c-16.376-2.541-32.79900001-2.541-48.949-0.137l-35.429-57.431-52.486 21.458 14.425 66.187c-13.02000001 9.617-24.633 21.095-34.523 34.432l-66.005-15.515-21.775 52.214 57.25 36.881c-2.449 16.286-2.404 32.707 0.091 48.584l-57.794 36.428 21.504 52.35 66.414-15.378c9.527 12.88399999 20.959 24.497 34.16 34.29599999l-15.061 66.59600001zM665.678 709.244c16.831-40.193 63.012-59.2 103.34-42.37 40.193 16.831 59.11 63.103 42.28 103.34-16.877 40.239-63.05700001 59.2-103.34 42.37-40.14800001-16.831-59.11-63.103-42.28-103.34zM317.46 650.861l74.034 0 14.425-88.09699999c20.822-5.217 40.465-13.38200001 58.431-24.22400001l73.218 51.352 52.30500001-52.35-51.98800001-72.22c10.932-18.054 19.234-37.743 24.451-58.793l87.688-15.332 0-74.034-87.417-14.245c-5.127-21.049-13.336-40.873-24.179-58.929l51.397-72.038-52.305-52.396-72.447 50.671c-18.146-10.932-37.924-19.28-59.11-24.542l-14.471-87.008-74.034 0-15.378 86.919c-21.14 5.262-40.965 13.564-59.155 24.588l-71.812-51.397-52.396 52.35 50.808 72.583c-10.887 18.146-19.143 37.878-24.31500001 58.929l-87.46299999 14.517 0 74.08 87.688 15.56c5.262 20.913 13.61 40.647 24.542 58.611l-51.307 73.037 52.396 52.35 72.402-52.124c18.009 10.797 37.607 19.008 58.52 24.134l15.469 88.052zM250.639 354.813c0-57.024 46.22699999-103.249 103.249-103.249s103.204 46.227 103.20399999 103.249-46.227 103.204-103.20399999 103.204c-57.024 0-103.24900001-46.18-103.249-103.204z" p-id="8145"></path></svg>