<?xml version="1.0" standalone="no"?><!DOCTYPE svg PUBLIC "-//W3C//DTD SVG 1.1//EN" "http://www.w3.org/Graphics/SVG/1.1/DTD/svg11.dtd"><svg t="1572531609856" class="icon" viewBox="0 0 1048 1024" version="1.1" xmlns="http://www.w3.org/2000/svg" p-id="8883" xmlns:xlink="http://www.w3.org/1999/xlink" width="131" height="128"><defs><style type="text/css"></style></defs><path d="M52.466 182.01a89.8 89.8 0 0 1 109.997-87.491l191.906 44.272a45.057 45.057 0 0 0 22.483-0.583l280.406-80.093a89.89 89.89 0 0 1 44.832-1.166l222.236 51.288a89.822 89.822 0 0 1 69.625 87.469v646.262a89.8 89.8 0 0 1-109.997 87.49l-191.906-44.271a45.057 45.057 0 0 0-22.484 0.583L389.16 965.885a89.89 89.89 0 0 1-44.878 1.166l-222.235-51.288a89.822 89.822 0 0 1-69.58-87.514V182.01z m44.832 0v646.24c0 20.959 14.459 39.116 34.858 43.846l222.213 51.266a45.057 45.057 0 0 0 22.483-0.583l280.383-80.094a89.89 89.89 0 0 1 44.878-1.165l191.928 44.294a44.967 44.967 0 0 0 55.077-43.846v-646.24c0-20.937-14.459-39.094-34.857-43.824l-222.213-51.243a45.057 45.057 0 0 0-22.484 0.583l-280.405 80.07a89.89 89.89 0 0 1-44.878 1.166l-191.906-44.294a44.967 44.967 0 0 0-55.077 43.846z" p-id="8884"></path><path d="M343.878 186.964v739.738h44.832V186.964z m313.828-89.666v739.738h44.833V97.298z" p-id="8885"></path></svg>