<?xml version="1.0" standalone="no"?><!DOCTYPE svg PUBLIC "-//W3C//DTD SVG 1.1//EN" "http://www.w3.org/Graphics/SVG/1.1/DTD/svg11.dtd"><svg t="1572531630558" class="icon" viewBox="0 0 1024 1024" version="1.1" xmlns="http://www.w3.org/2000/svg" p-id="9661" xmlns:xlink="http://www.w3.org/1999/xlink" width="128" height="128"><defs><style type="text/css"></style></defs><path d="M763.890402 211.607442l-50.833759 50.897204c-1.692548 0.143263-3.853771 0.36532-6.108115 0.597611-4.068665 0.419556-8.676613 0.909719-10.543124 0.88823l-0.210801-0.083911-0.738827-0.01228c-4.467755-0.071631-8.771781 0.147356-13.213953 0.687662l-28.448936 3.696182-0.686638 0.036839c-1.013073 0.053212-2.162246 0.11154-3.217275 0.243547l-1.261737 0.157589-0.300852 0.270153-136.76692 17.455557-136.572492-17.439184-0.277316-0.279363-1.403976-0.166799c-1.134847-0.134053-2.25639-0.192382-3.341095-0.248663l-29.02608-3.730974c-4.39203-0.535189-8.720615-0.759293-13.176091-0.682545l-0.760317 0.01228-0.203638 0.083911c-0.007163 0-0.014326 0-0.022513 0-1.922792 0-6.829546-0.505513-10.772344-0.911766-2.142803-0.221034-4.198625-0.432859-5.803169-0.571005l-50.930973-50.898227L62.000588 408.944879l96.320743 154.361647c2.719948 5.060249 15.649422 28.884864 20.50501 33.723056L399.578046 817.665655c8.501628 8.573259 19.454074 13.489222 30.049387 13.489222 7.80578 0 14.867616-2.7793 19.868513-7.813966l9.486048-9.437953 6.277984 6.28924c5.983271 6.02625 14.195304 9.344832 23.125697 9.344832 8.05956 0 16.182564-2.665713 23.184025-7.561209 7.04444 4.894474 15.198144 7.561209 23.266913 7.561209 8.944719 0 17.150612-3.320629 23.081695-9.331529l6.308683-6.29845 9.426697 9.426697c5.0449 5.0449 12.121062 7.822153 19.922748 7.822153 10.588149 0 21.557992-4.912893 30.090319-13.475919l220.62891-220.644259c4.857635-4.840238 17.817808-28.67304 20.538779-33.728172l96.386234-154.361647L763.890402 211.607442zM584.506872 793.678334c2.607384-2.623757 4.734838-5.723352 6.305613-9.149381 7.16826 7.204076 16.570397 11.590989 26.14138 12.274558l-7.115048 7.142677c-3.716648 3.714602-8.582469 5.935176-13.015432 5.935176-2.016937 0-4.888334-0.464581-7.097652-2.659573l-9.347902-9.43386L584.506872 793.678334zM617.981265 775.151375c-4.459568 0-9.008164-1.977028-12.45159-5.39794 0 0-9.737782-9.870812-23.003923-23.283286l-3.597945-3.647063c-1.734504-1.759063-3.523243-3.569292-5.359055-5.442966-18.472723-18.669198-37.560454-37.788651-49.79715-49.873897-3.729951-3.731998-6.804986-6.757914-9.438976-9.28855-7.087419-6.801916-7.087419-6.801916-8.981559-6.801916l-1.307785 0.005117-1.052982 0.74599-0.26606 0.205685c-3.628644 3.056616-6.737448 5.52176-9.785877 7.763824l-3.795443 2.792603 19.549242 19.531845 49.861618 49.926086 13.063527 12.95915c0.909719 4.677533-0.287549 9.273201-3.235694 12.20088l-17.418718 17.367553-9.16473 9.233292c-2.797719 2.794649-6.224772 3.385097-8.609075 3.385097-3.26844 0-6.742565-1.111311-9.739828-3.101641-0.443092-0.303922-0.899486-0.583285-1.355881-0.86367-0.709151-0.432859-1.321088-0.805342-1.750877-1.246387l-95.335299-95.351672-1.909489 0.190335c-5.922896 0.588401-11.292184 0.807389-16.870226 0.673335l-10.128685-0.248663 44.557822 44.596707 17.683754 17.646915c2.311649 5.263887 1.855254 10.598382-1.210571 13.716396l-11.467169 11.365862-12.209066 12.294001c-2.216481 2.212388-5.073552 2.676969-7.078209 2.676969-4.415566 0-9.272177-2.220574-12.983709-5.932106l-14.984273-15.030321-49.189306-49.123814L192.725908 583.306023c-4.306072-5.487991-62.718437-103.953583-102.102423-170.783665l168.622442-168.592766 41.393759 42.10291 7.110955 0.397043c5.459339 0.344854 11.316743 0.895393 16.980743 1.426489 5.745864 0.539282 11.175527 1.049912 16.284895 1.37123l74.629721 9.56075c-20.147876 3.980661-33.95944 24.736381-31.104415 47.498804l6.095835 47.547923c2.761903 21.73707 19.929912 38.129412 39.932478 38.129412 1.446955 0 2.910283-0.089028 4.353145-0.26299 2.648316-0.12382 38.186717-1.769296 62.922075-2.647293l0.183172-0.011256c0.157589-0.01228 0.310062-0.021489 0.459464-0.030699 1.322112 1.411139 2.453888 2.586918 3.093455 3.212158l187.010231 186.994881c3.099594 3.093455 4.808516 7.232728 4.808516 11.654434 0 4.423753-1.709945 8.571213-4.811586 11.67797L658.040632 673.103188c-3.101641 3.114944-7.241938 4.828982-11.659551 4.828982-4.41352 0-8.54256-1.714038-11.640108-4.837168l-94.6548-94.584192-2.575662 4.823865c-2.808976 5.263887-5.350868 9.81146-7.774057 13.905708l-1.600451 2.706645 123.555014 123.588783c3.204995 3.199878 5.122671 7.246031 5.402033 11.396561 0.265036 3.945869-1.00284 7.53358-3.574409 10.108219l-26.530236 26.582425C624.692107 773.897825 621.492228 775.151375 617.981265 775.151375zM669.643901 693.888584c1.362021-1.426489 2.859118-2.991124 4.524037-4.665253l30.579459-30.526247 0.348947-0.396019c17.194614-22.329565 20.258393-42.970674-17.537422-76.791967L534.449803 428.420443l-1.220804-1.279133c-1.249457-1.304715-2.352581-2.459005-3.341095-3.479241l0.028653-0.029676c3.89982-4.001127 8.320503-8.53642 11.458983-11.473309 0.777713-0.729617 1.76725-1.6465 2.524496-2.272763l9.330506-7.699356-120.931257 5.241374-0.334621 0.027629c-0.605797 0.077771-1.220804 0.116657-1.829671 0.116657-8.41567 0-15.682167-7.16519-16.903995-16.661472l-6.03239-47.556109c-0.699941-5.321192 0.667196-10.665921 3.749394-14.667048 2.605338-3.377934 6.218632-5.51562 10.180873-6.02011l90.943268-11.666714 64.238047-8.211009 105.830327-13.566994c5.151323-0.322341 10.870582-0.858554 16.401552-1.37737 5.644557-0.529049 11.480472-1.075495 16.868179-1.417279l7.136537-0.398066 41.362037-42.100864 168.590719 168.590719c-39.368636 66.821895-97.770767 165.28851-102.096283 170.777525L681.410899 732.355687c-0.957815-5.010107-3.615341-9.754155-7.918343-14.046924l-14.907525-15.049764C662.14716 701.728132 665.372621 698.354292 669.643901 693.888584zM495.169171 806.659997c-1.718131 0.573051-3.465938 0.871857-5.154393 0.871857-3.408633 0-6.40999-1.176802-8.641821-3.373841l-6.389524-6.438643c1.719154-2.127454 3.095501-4.527107 4.103458-7.142677L495.169171 806.659997z" p-id="9662"></path></svg>