<?xml version="1.0" standalone="no"?><!DOCTYPE svg PUBLIC "-//W3C//DTD SVG 1.1//EN" "http://www.w3.org/Graphics/SVG/1.1/DTD/svg11.dtd"><svg t="1572531493866" class="icon" viewBox="0 0 1024 1024" version="1.1" xmlns="http://www.w3.org/2000/svg" p-id="7395" xmlns:xlink="http://www.w3.org/1999/xlink" width="128" height="128"><defs><style type="text/css"></style></defs><path d="M162.351622 162.351622l87.488587 0 0 87.488587-87.488587 0 0-87.488587Z" p-id="7396"></path><path d="M291.254433 162.351622l570.393945 0 0 87.488587-570.393945 0 0-87.488587Z" p-id="7397"></path><path d="M162.351622 468.255707l87.488587 0 0 87.488587-87.488587 0 0-87.488587Z" p-id="7398"></path><path d="M291.254433 468.255707l570.393945 0 0 87.488587-570.393945 0 0-87.488587Z" p-id="7399"></path><path d="M162.351622 775.334547l87.488587 0 0 87.488587-87.488587 0 0-87.488587Z" p-id="7400"></path><path d="M291.254433 775.334547l570.393945 0 0 87.488587-570.393945 0 0-87.488587Z" p-id="7401"></path></svg>