<svg class="icon" viewBox="0 0 1024 1024" xmlns="http://www.w3.org/2000/svg" width="64" height="64"><defs><style>@font-face{font-family:feedback-iconfont;src:url(//at.alicdn.com/t/font_1031158_1uhr8ri0pk5.eot?#iefix) format(&quot;embedded-opentype&quot;),url(//at.alicdn.com/t/font_1031158_1uhr8ri0pk5.woff2) format(&quot;woff2&quot;),url(//at.alicdn.com/t/font_1031158_1uhr8ri0pk5.woff) format(&quot;woff&quot;),url(//at.alicdn.com/t/font_1031158_1uhr8ri0pk5.ttf) format(&quot;truetype&quot;),url(//at.alicdn.com/t/font_1031158_1uhr8ri0pk5.svg#iconfont) format(&quot;svg&quot;)}</style></defs><path d="M501.5 336.9c-65.8 0-119.3-53.5-119.3-119.4S435.6 98.3 501.5 98.3s119.4 53.5 119.4 119.3-53.6 119.3-119.4 119.3zm0-189c-38.4 0-69.7 31.3-69.7 69.7 0 38.4 31.3 69.7 69.7 69.7 38.4 0 69.7-31.3 69.7-69.7-.1-38.4-31.3-69.7-69.7-69.7z"/><path d="M794.5 472.3c-11.2 0-21.4-7.7-24.1-19.1-16.5-69.8-58.7-130.3-118.8-170.2-11.4-7.6-14.5-23-6.9-34.4 7.6-11.4 23-14.5 34.4-6.9 70.6 47 120.1 118.1 139.6 200.1 3.2 13.3-5.1 26.7-18.4 29.9-2 .4-3.9.6-5.8.6zm-607.3 71.3c-13.7 0-24.8-11.1-24.8-24.8C162.4 408.1 217.2 305 309 243c11.4-7.7 26.8-4.7 34.5 6.7 7.7 11.4 4.7 26.8-6.7 34.5A282.542 282.542 0 0 0 212 518.7c0 13.7-11.1 24.9-24.8 24.9zm258.9 332.8c-1.9 0-3.9-.2-5.8-.7-25.7-6.2-75.6-21.6-100.8-34.9-12.1-6.4-16.7-21.5-10.3-33.6 6.4-12.1 21.4-16.8 33.6-10.3 20.2 10.7 65.5 24.8 89.1 30.5 13.3 3.2 21.5 16.6 18.3 29.9-2.8 11.5-12.9 19.1-24.1 19.1z" opacity=".5"/><path d="M235.8 806.2c-65.8 0-119.4-53.5-119.4-119.4S170 567.4 235.8 567.4 355.2 621 355.2 686.8s-53.6 119.4-119.4 119.4zm0-189.1c-38.4 0-69.7 31.3-69.7 69.7 0 38.4 31.3 69.7 69.7 69.7 38.4 0 69.7-31.3 69.7-69.7 0-38.4-31.2-69.7-69.7-69.7zm377.8 281.2h-69.2c-7.1 0-13.9-3.1-18.6-8.4-4.7-5.3-6.9-12.4-6-19.5l7.9-64.3c.7-5.7 3.3-10.9 7.5-14.9l246.7-235.9c9.9-9.4 25.5-9.1 35 .6l60.9 62.7c4.6 4.7 7.1 11.1 7 17.7-.1 6.6-2.8 12.9-7.6 17.5L630.8 891.4c-4.6 4.4-10.8 6.9-17.2 6.9zm-41.1-49.6h31.1l221.2-213.3-26.4-27.1L575.9 821l-3.4 27.7zm336.8-223.1L816 527.2c-.4-.4-.4-1.1 0-1.5l41.5-39.4c.4-.4 1.1-.4 1.5 0l93.2 98.3c.4.4.4 1.1 0 1.5l-41.5 39.4c-.4.5-1 .5-1.4.1z"/></svg>