<svg class="icon" viewBox="0 0 1024 1024" xmlns="http://www.w3.org/2000/svg" width="64" height="64"><defs><style/></defs><path d="M67.04 100.41h889.919v200.232H67.039V100.411zm0 244.729h266.976v266.975H67.039V345.14zm0 311.471h266.976v266.977H67.039V656.611zm311.471-311.471h266.977v266.975H378.51V345.14zm0 311.471h266.977v266.977H378.51V656.611zm311.472-311.471H956.96v266.975H689.983V345.14zm0 311.471H956.96v266.977H689.983V656.611z"/><path d="M67.04 100.41h889.919v200.232H67.039V100.411zm0 244.729h266.976v266.975H67.039V345.14zm0 311.471h266.976v266.977H67.039V656.611zm311.471-311.471h266.977v266.975H378.51V345.14zm0 311.471h266.977v266.977H378.51V656.611zm311.472-311.471H956.96v266.975H689.983V345.14zm0 311.471H956.96v266.977H689.983V656.611z"/></svg>