<?xml version="1.0" standalone="no"?><!DOCTYPE svg PUBLIC "-//W3C//DTD SVG 1.1//EN" "http://www.w3.org/Graphics/SVG/1.1/DTD/svg11.dtd"><svg t="1572531380087" class="icon" viewBox="0 0 1024 1024" version="1.1" xmlns="http://www.w3.org/2000/svg" p-id="5136" xmlns:xlink="http://www.w3.org/1999/xlink" width="128" height="128"><defs><style type="text/css"></style></defs><path d="M665.344 938.7008H145.3568a60.0576 60.0576 0 0 1-60.0064-60.0064V358.7072a60.0576 60.0576 0 0 1 60.0064-60.0064h519.9872a60.0576 60.0576 0 0 1 60.0064 60.0064v519.9872a60.0576 60.0576 0 0 1-60.0064 60.0064zM145.3568 358.7072v519.9872h519.936V358.7072z m656.7936 473.2928a30.0544 30.0544 0 0 1-30.1568-29.8496V252.0064H222.0032a30.0032 30.0032 0 1 1 0-60.0064h549.9904a60.0576 60.0576 0 0 1 60.0064 60.0064v550.144a30.0032 30.0032 0 0 1-29.8496 29.8496z m106.6496-160a30.0032 30.0032 0 0 1-30.0032-30.0032v-496.64H385.0752a30.0032 30.0032 0 0 1 0-60.0064h493.6192a60.0576 60.0576 0 0 1 60.0064 60.0064v496.64a30.0544 30.0544 0 0 1-30.0544 30.0032z m-346.7776-23.4496h-313.344a30.0032 30.0032 0 0 1 0-60.0064h313.344a30.0032 30.0032 0 0 1 0 60.0064z" p-id="5137"></path></svg>