<svg class="icon" viewBox="0 0 1024 1024" xmlns="http://www.w3.org/2000/svg" width="64" height="64"><defs><style>@font-face{font-family:feedback-iconfont;src:url(//at.alicdn.com/t/font_1031158_1uhr8ri0pk5.eot?#iefix) format(&quot;embedded-opentype&quot;),url(//at.alicdn.com/t/font_1031158_1uhr8ri0pk5.woff2) format(&quot;woff2&quot;),url(//at.alicdn.com/t/font_1031158_1uhr8ri0pk5.woff) format(&quot;woff&quot;),url(//at.alicdn.com/t/font_1031158_1uhr8ri0pk5.ttf) format(&quot;truetype&quot;),url(//at.alicdn.com/t/font_1031158_1uhr8ri0pk5.svg#iconfont) format(&quot;svg&quot;)}</style></defs><path d="M461.197 115.585a406.415 406.415 0 0 0-103.61 25.538A455.302 455.302 0 0 0 60.619 567.97a427.575 427.575 0 0 0 12.404 91.206 437.79 437.79 0 0 0 29.916 91.936 72.965 72.965 0 0 1 60.56-32.105 63.48 63.48 0 0 1 23.35 4.378 357.529 357.529 0 0 1-29.916-91.936 383.796 383.796 0 0 1-10.945-63.48 369.933 369.933 0 0 1 224.733-338.557 343.665 343.665 0 0 1 86.098-24.808 68.587 68.587 0 0 1-13.133-41.59 72.965 72.965 0 0 1 17.511-47.428zm213.788 25.538a408.604 408.604 0 0 0-102.881-25.538 72.965 72.965 0 0 1 17.512 47.428 72.965 72.965 0 0 1-13.134 41.59 338.558 338.558 0 0 1 85.369 24.808 369.933 369.933 0 0 1 223.273 338.558 323.235 323.235 0 0 1-6.567 65.668 322.505 322.505 0 0 1-27.727 87.558h10.216a72.965 72.965 0 0 1 67.127 43.78 405.686 405.686 0 0 0 32.835-96.315 412.252 412.252 0 0 0 11.674-99.962 454.572 454.572 0 0 0-297.697-427.575zm116.014 672.008a388.174 388.174 0 0 1-68.587 60.561 369.203 369.203 0 0 1-420.279-5.837 348.773 348.773 0 0 1-69.316-65.669 72.965 72.965 0 0 1-61.291 63.48 399.848 399.848 0 0 0 72.965 65.668 453.113 453.113 0 0 0 544.32 0 372.122 372.122 0 0 0 72.964-68.587A72.965 72.965 0 0 1 791 813.131z"/><path d="M160.581 632.907h-6.567a165.63 165.63 0 0 0-80.99 26.268 160.523 160.523 0 0 0 87.557 291.86 155.416 155.416 0 0 0 80.991-22.62 162.712 162.712 0 0 0 79.532-134.984 160.523 160.523 0 0 0-160.523-160.524zm0 233.489a72.965 72.965 0 0 1-72.965-72.965 72.965 72.965 0 0 1 12.404-40.86 72.965 72.965 0 0 1 60.561-32.106 63.48 63.48 0 0 1 23.349 4.378 72.965 72.965 0 0 1 49.616 68.588 35.753 35.753 0 0 1 0 8.755 72.965 72.965 0 0 1-61.29 63.48zm514.404-725.273a159.793 159.793 0 0 0-317.398 0v21.89a157.604 157.604 0 0 0 14.593 66.398 159.793 159.793 0 0 0 291.86 0 145.93 145.93 0 0 0 15.323-66.398 111.636 111.636 0 0 0-4.378-21.89zM516.65 235.978a72.965 72.965 0 0 1-59.832-31.375 68.587 68.587 0 0 1-13.133-41.59 72.965 72.965 0 0 1 72.965-72.965 72.965 72.965 0 0 1 55.453 25.537 72.965 72.965 0 0 1 17.512 47.428 72.965 72.965 0 0 1-13.134 41.59 72.965 72.965 0 0 1-59.831 31.375zM961.008 667.93a159.793 159.793 0 0 0-85.37-34.294h-14.592a160.523 160.523 0 0 0-72.966 302.075 155.416 155.416 0 0 0 72.966 18.971 160.523 160.523 0 0 0 99.962-286.023zm-99.962 198.465a72.965 72.965 0 0 1-72.966-53.265 58.372 58.372 0 0 1 0-19.7 72.965 72.965 0 0 1 62.75-72.966h10.216a72.965 72.965 0 0 1 67.127 43.78 77.343 77.343 0 0 1 5.838 29.186 72.965 72.965 0 0 1-72.965 72.965z"/></svg>