<svg class="icon" viewBox="0 0 1024 1024" xmlns="http://www.w3.org/2000/svg" width="64" height="64"><defs><style>@font-face{font-family:feedback-iconfont;src:url(//at.alicdn.com/t/font_1031158_1uhr8ri0pk5.eot?#iefix) format(&quot;embedded-opentype&quot;),url(//at.alicdn.com/t/font_1031158_1uhr8ri0pk5.woff2) format(&quot;woff2&quot;),url(//at.alicdn.com/t/font_1031158_1uhr8ri0pk5.woff) format(&quot;woff&quot;),url(//at.alicdn.com/t/font_1031158_1uhr8ri0pk5.ttf) format(&quot;truetype&quot;),url(//at.alicdn.com/t/font_1031158_1uhr8ri0pk5.svg#iconfont) format(&quot;svg&quot;)}</style></defs><path d="M477.184 242.688l-21.504-21.504c-6.144-6.144-15.36-6.144-21.504 0L299.008 356.352l-54.272-54.272c-6.144-6.144-15.36-6.144-21.504 0l-21.504 21.504c-6.144 6.144-6.144 15.36 0 21.504l75.776 75.776c6.144 6.144 14.336 9.216 21.504 9.216 8.192 0 15.36-3.072 21.504-9.216l156.672-156.672c5.12-5.12 5.12-15.36 0-21.504zM788.48 389.12H522.24c-11.264 0-20.48-9.216-20.48-20.48v-40.96c0-11.264 9.216-20.48 20.48-20.48h266.24c11.264 0 20.48 9.216 20.48 20.48v40.96c0 11.264-9.216 20.48-20.48 20.48zm0 184.32H460.8c-11.264 0-20.48-9.216-20.48-20.48V512c0-11.264 9.216-20.48 20.48-20.48h327.68c11.264 0 20.48 9.216 20.48 20.48v40.96c0 11.264-9.216 20.48-20.48 20.48zm-450.56 0h-40.96c-11.264 0-20.48-9.216-20.48-20.48V512c0-11.264 9.216-20.48 20.48-20.48h40.96c11.264 0 20.48 9.216 20.48 20.48v40.96c0 11.264-9.216 20.48-20.48 20.48zm0 184.32h-40.96c-11.264 0-20.48-9.216-20.48-20.48v-40.96c0-11.264 9.216-20.48 20.48-20.48h40.96c11.264 0 20.48 9.216 20.48 20.48v40.96c0 11.264-9.216 20.48-20.48 20.48zm450.56 0H460.8c-11.264 0-20.48-9.216-20.48-20.48v-40.96c0-11.264 9.216-20.48 20.48-20.48h327.68c11.264 0 20.48 9.216 20.48 20.48v40.96c0 11.264-9.216 20.48-20.48 20.48z"/></svg>