<?xml version="1.0" standalone="no"?><!DOCTYPE svg PUBLIC "-//W3C//DTD SVG 1.1//EN" "http://www.w3.org/Graphics/SVG/1.1/DTD/svg11.dtd"><svg t="1548125726379" class="icon" style="" viewBox="0 0 1024 1024" version="1.1" xmlns="http://www.w3.org/2000/svg" p-id="7484" xmlns:xlink="http://www.w3.org/1999/xlink" width="200" height="200"><defs><style type="text/css"></style></defs><path d="M224 480c-52.992 0-96-57.28-96-128 0-64.192 35.456-117.376 81.664-126.592C253.184 112.768 372.096 32 512 32c139.904 0 258.88 80.832 302.336 193.408C860.544 234.624 896 287.808 896 352c0 70.72-43.008 128-96 128H768V320c0-122.112-113.216-224-256-224S256 197.888 256 320v160h-32z m-158.208 512A258.688 258.688 0 0 1 64 960c0-140.8 88.448-263.936 220.288-330.752A382.272 382.272 0 0 0 512 704a382.272 382.272 0 0 0 227.712-74.752C871.552 696.064 960 819.2 960 960c0 11.712-0.64 22.4-1.792 32H65.792zM512 608a224 224 0 1 1 0-448 224 224 0 0 1 0 448z" p-id="7485"></path></svg>