<?xml version="1.0" standalone="no"?><!DOCTYPE svg PUBLIC "-//W3C//DTD SVG 1.1//EN" "http://www.w3.org/Graphics/SVG/1.1/DTD/svg11.dtd"><svg t="1548086077748" class="icon" style="" viewBox="0 0 1024 1024" version="1.1" xmlns="http://www.w3.org/2000/svg" p-id="7165" xmlns:xlink="http://www.w3.org/1999/xlink" width="200" height="200"><defs><style type="text/css"></style></defs><path d="M504.520978 16.450726c-278.132385 0-503.600894 225.468509-503.600894 503.600894 0 278.134399 225.468509 503.606937 503.600894 503.606937 278.136414 0 503.604923-225.472538 503.604923-503.606937C1008.125901 241.919235 782.657392 16.450726 504.520978 16.450726zM504.520978 960.706053c-243.365585 0-440.650404-197.287841-440.650404-440.654433 0-243.363571 197.285827-440.652419 440.650404-440.652419 243.366592 0 440.654433 197.288848 440.654433 440.652419C945.175412 763.419219 747.88757 960.706053 504.520978 960.706053z" p-id="7166"></path><path d="M572.779453 214.74376c-33.194548 0-60.098077 26.905543-60.098077 60.106135 0 33.180448 26.903528 60.093041 60.098077 60.093041 33.193541 0 60.098077-26.907557 60.098077-60.093041C632.878537 241.648296 605.972994 214.74376 572.779453 214.74376zM482.629316 395.046048c-43.656416 0.427056-60.100091 30.048031-60.100091 30.048031s59.650877 10.87583 60.100091 60.102106c0.446193 49.202103-119.303768 191.141859-120.199175 240.397343-0.893393 49.252463 77.069529 72.654937 112.713607 65.146203 43.925341-9.255233 67.581631-35.094142 67.581631-35.094142s-90.099777 10.31683-90.150137-30.046017c-0.04331-40.364861 120.782349-191.18114 120.199175-240.395329C572.194265 435.970917 526.289761 394.613956 482.629316 395.046048z" p-id="7167"></path></svg>