<?xml version="1.0" standalone="no"?><!DOCTYPE svg PUBLIC "-//W3C//DTD SVG 1.1//EN" "http://www.w3.org/Graphics/SVG/1.1/DTD/svg11.dtd"><svg t="1548086035558" class="icon" style="" viewBox="0 0 1025 1024" version="1.1" xmlns="http://www.w3.org/2000/svg" p-id="6288" xmlns:xlink="http://www.w3.org/1999/xlink" width="200.1953125" height="200"><defs><style type="text/css"></style></defs><path d="M575.488 68.608c0-53.248-16.384-55.296-72.192-55.296L438.272 13.312C382.976 13.312 366.08 15.36 366.08 68.608l0 43.008 208.896 0L574.976 68.608z" p-id="6289"></path><path d="M438.272 1006.592l65.024 0c64 0 72.192-2.048 72.192-55.296L575.488 139.264 366.08 139.264l0 812.032C366.08 1004.544 382.976 1006.592 438.272 1006.592z" p-id="6290"></path><path d="M1006.08 868.352l-217.088 51.712 10.752 39.424c13.312 51.712 15.872 53.248 69.632 40.448l104.448-24.576 0 0 0 0c61.952-14.848 55.808-15.36 39.424-80.384L1006.08 868.352z" p-id="6291"></path><path d="M864.256 346.624c-9.728-38.4-12.288-39.936-66.56-27.136l-104.448 24.576c-53.76 12.8-55.808 15.36-42.496 67.072l123.392 455.168 217.088-51.712L864.256 346.624z" p-id="6292"></path><path d="M0.512 951.296c0 53.248 2.56 55.296 57.856 55.296l164.352 0c55.296 0 57.856-2.048 57.856-55.296l0-46.592L0.512 904.704 0.512 951.296z" p-id="6293"></path><path d="M0.512 400.384l280.064 0 0 400.896-280.064 0 0-400.896Z" p-id="6294"></path><path d="M0.512 828.928l280.064 0 0 48.64-280.064 0 0-48.64Z" p-id="6295"></path><path d="M280.576 275.456c0-53.248-2.56-55.296-57.856-55.296L58.368 220.16C2.56 220.16 0.512 222.208 0.512 275.456l0 69.632 280.064 0L280.576 275.456z" p-id="6296"></path></svg>