<?xml version="1.0" standalone="no"?><!DOCTYPE svg PUBLIC "-//W3C//DTD SVG 1.1//EN" "http://www.w3.org/Graphics/SVG/1.1/DTD/svg11.dtd"><svg t="1548122685582" class="icon" style="" viewBox="0 0 1024 1024" version="1.1" xmlns="http://www.w3.org/2000/svg" p-id="3066" xmlns:xlink="http://www.w3.org/1999/xlink" width="200" height="200"><defs><style type="text/css"></style></defs><path d="M901.7 947.4H122.8c-15.3 0-27.7-12.4-27.7-27.7V100.3c0-15.3 12.4-27.7 27.7-27.7h778.9c15.3 0 27.7 12.4 27.7 27.7v819.4c0.1 15.3-12.3 27.7-27.7 27.7z m-751.2-55.5H874V128H150.5v763.9z" p-id="3067"></path><path d="M236.5 257.7h203.7v216.6H236.5zM236.5 575h526.7v55.4H236.5zM571.9 257.7h191.3v55.4H571.9zM571.9 418.8h191.3v55.4H571.9zM236.5 723.8h526.7v55.4H236.5z" p-id="3068"></path></svg>