<?xml version="1.0" standalone="no"?><!DOCTYPE svg PUBLIC "-//W3C//DTD SVG 1.1//EN" "http://www.w3.org/Graphics/SVG/1.1/DTD/svg11.dtd"><svg t="1548085804358" class="icon" style="" viewBox="0 0 1024 1024" version="1.1" xmlns="http://www.w3.org/2000/svg" p-id="3083" xmlns:xlink="http://www.w3.org/1999/xlink" width="200" height="200"><defs><style type="text/css"></style></defs><path d="M236.509862 0a236.332369 236.332369 0 0 1 236.161732 236.332369v236.161732H236.509862A236.332369 236.332369 0 0 1 236.509862 0z m0 551.328436h236.161732V787.490168A236.332369 236.332369 0 1 1 236.509862 551.157799zM787.667662 0a236.332369 236.332369 0 0 1 0 472.494101H551.591248V236.332369A236.332369 236.332369 0 0 1 787.667662 0zM551.591248 551.328436H787.667662A236.332369 236.332369 0 1 1 551.335293 787.490168V551.157799z" p-id="3084"></path></svg>