<?xml version="1.0" standalone="no"?><!DOCTYPE svg PUBLIC "-//W3C//DTD SVG 1.1//EN" "http://www.w3.org/Graphics/SVG/1.1/DTD/svg11.dtd"><svg t="1548085953840" class="icon" style="" viewBox="0 0 1024 1024" version="1.1" xmlns="http://www.w3.org/2000/svg" p-id="3968" xmlns:xlink="http://www.w3.org/1999/xlink" width="200" height="200"><defs><style type="text/css"></style></defs><path d="M878.844 467.938l41.906 25.125c10.406 6.28 13.781 19.78 7.594 30.187a22.628 22.628 0 0 1-7.594 7.594L534.687 762.5a44.255 44.255 0 0 1-45.375 0L103.25 530.937c-10.406-6.28-13.781-19.78-7.594-30.187a22.628 22.628 0 0 1 7.594-7.594l41.906-25.219 344.25 206.532a44.086 44.086 0 0 0 45.281 0l344.157-206.532z m0 132.093l41.906 25.125c10.406 6.282 13.781 19.782 7.594 30.188a22.628 22.628 0 0 1-7.594 7.593L534.687 894.595a44.255 44.255 0 0 1-45.375 0L103.25 662.937c-10.406-6.28-13.781-19.78-7.594-30.187a22.628 22.628 0 0 1 7.594-7.594l41.906-25.218 344.25 206.53a44.086 44.086 0 0 0 45.281 0l344.157-206.437z m-344.25-470.718l386.156 231.75c10.406 6.28 13.781 19.78 7.594 30.187a22.628 22.628 0 0 1-7.594 7.594L534.687 630.406a44.255 44.255 0 0 1-45.375 0L103.25 398.844c-10.406-6.282-13.781-19.782-7.594-30.188a22.628 22.628 0 0 1 7.594-7.593l386.063-231.657c13.968-8.344 31.406-8.344 45.28-0.094z" p-id="3969"></path></svg>